<svg xmlns="http://www.w3.org/2000/svg" width="256" height="256"><path fill-opacity=".016" d="M0 128.004v128.004l128.25-.254 128.25-.254.254-127.75L257.008 0H0v128.004m.485.496c0 70.4.119 99.053.265 63.672.146-35.38.146-92.98 0-128C.604 29.153.485 58.1.485 128.5" fill="#1976D2" fill-rule="evenodd"/><path fill-opacity=".091" d="M0 127.504v127.504l128.25-.254 128.25-.254.254-127.25L257.008 0H0v127.504m.485.496c0 70.125.119 98.813.265 63.75.146-35.062.146-92.437 0-127.5C.604 29.188.485 57.875.485 128m98.913-62.113c-1.706.44-5.043 1.883-7.415 3.206-5.22 2.913-10.064 11.007-12.115 20.243-1.73 7.797-1.723 28.197.016 40.738l1.327 9.575-3.055 8.925c-5.552 16.221-6.219 27.718-2.151 37.09 2.025 4.668 4.798 6.61 8.776 6.148 4.422-.514 5.053-4.35 2.406-14.62-1.231-4.781-2.227-9.934-2.213-11.451.014-1.518 2.742-8.03 6.061-14.471l6.034-11.712-3.438-3.029-3.439-3.029-.557-11.71c-.404-8.49-.206-12.387.719-14.171l1.276-2.46 9.435 8.421c18.025 16.088 29.962 23.3 38.71 23.387 1.801.018 5.836-.867 8.965-1.967 9.571-3.364 10.525-2.437 4.402 4.272-5.273 5.778-6.339 8.135-6.294 13.92.068 8.791 8.035 22.586 19.427 33.637 3.529 3.424 5.064 4.26 7.343 4 2.328-.266 2.945-.876 3.208-3.176.251-2.195-1.557-5.689-7.893-15.254-7.675-11.587-8.219-12.755-8.219-17.663 0-6.919 2.73-12.113 9.728-18.509 4.382-4.005 5.558-5.715 5.558-8.082 0-1.651.662-3.665 1.472-4.474 1.228-1.228 1.249-1.658.127-2.589-.74-.614-1.965-.897-2.722-.629-.757.268-10.069 1.845-20.694 3.503-21.914 3.421-21.19 3.509-32.13-3.92-3.952-2.684-6.053-4.792-6.053-6.073 0-1.08.387-1.963.861-1.963.473 0 2.752-2.925 5.064-6.5 2.312-3.575 4.371-6.5 4.574-6.5.204 0 1.525.439 2.936.975 1.627.619 3.473.63 5.049.031 1.583-.602 4.476-.576 7.978.072 12.234 2.261 44.203 13.995 46.41 17.033.793 1.091 2.579 1.889 4.23 1.889 2.322 0 3.236-.742 4.878-3.96 2.721-5.334 2.635-9.593-.23-11.46-1.238-.807-20.475-9.643-42.75-19.637-35.548-15.949-41.234-18.212-46.5-18.513-3.3-.189-7.396.017-9.102.457m3.28 7.597c-3.598 1.877-6.313 5.137-7.728 9.28C92.736 89.249 99.629 98 106.951 98c5.896 0 12.068-5.991 12.793-12.418.599-5.313-1.123-8.623-6.048-11.626-3.813-2.325-7.188-2.469-11.018-.472" fill="#1976D2" fill-rule="evenodd"/><path fill-opacity=".325" d="M0 127.504v127.504l128.25-.254 128.25-.254.254-127.25L257.008 0H0v127.504m.485.496c0 70.125.119 98.813.265 63.75.146-35.062.146-92.437 0-127.5C.604 29.188.485 57.875.485 128M99.81 64.34C89.38 67.277 83.295 74.5 79.878 88c-1.934 7.642-2.089 10.165-1.535 25 .339 9.075 1.063 18.64 1.608 21.255.894 4.291.631 5.802-2.69 15.5-3.303 9.645-3.684 11.819-3.72 21.245-.035 8.972.292 11.176 2.247 15.144 2.722 5.526 6.821 7.811 10.777 6.008 4.43-2.018 4.858-5.455 2.064-16.596l-2.5-9.972 1.947-5.542c1.07-3.048 3.967-9.019 6.435-13.269 2.469-4.25 4.489-8.104 4.489-8.565 0-.461-1.508-1.557-3.35-2.435-3.02-1.44-3.414-2.125-3.992-6.935-.78-6.497-.866-22.838-.12-22.838.296 0 5.101 4.049 10.678 8.998 11.439 10.151 23.369 18.727 28.701 20.633 5.236 1.872 12.976 1.642 19.426-.577 3.378-1.162 5.657-1.524 5.657-.897 0 .577-2.011 3.286-4.468 6.019-6.805 7.568-7.227 14.543-1.559 25.77C155.364 176.627 168.866 192 172.854 192c2.92 0 6.146-2.958 6.146-5.634 0-1.483-3.248-7.379-7.896-14.333-4.343-6.497-8.206-13.222-8.585-14.945-1.712-7.794 2.242-15.957 11.154-23.03 4.847-3.847 5.119-4.297 4.305-7.134-.662-2.31-.525-3.16.577-3.583.795-.305 1.445-1.68 1.445-3.055 0-1.582-.459-2.329-1.25-2.033-.687.257-10.984 1.954-22.882 3.771l-21.632 3.304-4.368-2.575c-2.402-1.416-6.245-3.942-8.539-5.613l-4.172-3.039 4.461-6.86 4.462-6.86 9.21.132c6.954.1 11.414.812 18.21 2.906 16.004 4.93 32.93 11.74 35.755 14.385 2.323 2.175 3.18 2.429 5.477 1.621 5.574-1.96 9.34-13.313 5.518-16.637-1.532-1.332-28.304-13.578-72.169-33.01-14.764-6.54-20.465-7.637-28.271-5.438m1.953 10.225c-1.506.817-3.419 2.802-4.25 4.411-5.993 11.588 8.109 22.563 17.921 13.948 4.405-3.868 5.415-8.333 3.024-13.371-2.882-6.074-10.499-8.35-16.695-4.988" fill="#1976D2" fill-rule="evenodd"/><path fill-opacity=".467" d="M0 127.504v127.504l128.25-.254 128.25-.254.254-127.25L257.008 0H0v127.504m.485.496c0 70.125.119 98.813.265 63.75.146-35.062.146-92.437 0-127.5C.604 29.188.485 57.875.485 128m94.959-62.677c-16.042 7.631-21.467 29.457-16.373 65.873 1.135 8.112 1.092 8.502-1.856 16.854-5.391 15.274-6.216 27.709-2.468 37.219 2.801 7.109 9.986 9.998 14.253 5.731 2.629-2.629 2.59-7.355-.148-17.789l-2.175-8.288 2.555-6.212c1.405-3.416 4.361-9.321 6.568-13.122 2.208-3.801 3.811-7.439 3.563-8.086-.248-.646-2.006-1.916-3.907-2.823L92 133.032v-26.178l3.331 2.823c1.832 1.553 6.895 5.901 11.25 9.663 11.813 10.202 21.417 16.292 28.027 17.772 5.763 1.289 7.188 1.092 19.392-2.683 2.176-.673 1.87-.034-2.365 4.943-2.781 3.268-5.223 7.302-5.7 9.416-2.105 9.333 5.499 24.291 19.552 38.462 3.464 3.493 5.479 4.75 7.612 4.75 3.336 0 6.901-3.086 6.901-5.973 0-1.085-3.688-7.446-8.196-14.136-7.497-11.126-8.225-12.643-8.534-17.778-.447-7.421 3.097-13.982 10.555-19.538 4.919-3.665 5.279-4.21 4.726-7.155-.438-2.333-.189-3.345.925-3.773.838-.321 1.524-1.723 1.524-3.116 0-3.208.524-3.218-23 .469-10.527 1.65-20.255 3-21.619 3-3.01 0-7.313-2.118-13.61-6.699l-4.728-3.44 1.89-2.68c1.04-1.475 3.055-4.583 4.477-6.907 2.316-3.787 2.838-4.13 5.02-3.301 1.392.53 3.695.565 5.377.082 5.207-1.493 18.082 1.82 39.693 10.213 7.15 2.777 13.588 5.878 14.307 6.891 1.313 1.851 4.631 2.378 7.658 1.216 2.042-.783 6.535-9.506 6.535-12.687 0-1.308-.845-3.142-1.877-4.076-1.032-.935-20.494-10.092-43.25-20.349-41.179-18.564-41.41-18.652-49.373-18.998-6.827-.296-8.741.006-13.056 2.058m6.87 9.627c-5.461 3.33-6.887 9.107-3.748 15.178 3.525 6.816 14.462 7.154 18.476.571 3.752-6.154 2.024-13.062-4.053-16.205-3.875-2.003-6.85-1.876-10.675.456" fill="#1976D2" fill-rule="evenodd"/></svg>