<svg xmlns="http://www.w3.org/2000/svg" viewBox="0 0 87.77 87.64"><defs><style>.cls-1{fill:#fff;}</style></defs><g id="Calque_2" data-name="Calque 2"><g id="Calque_1-2" data-name="Calque 1"><path class="cls-1" d="M65.46,83.34c-.2-.2-18.61-17.84-11.62-27.93l4.4-4.5.5-.5,2.9.7c-2.7,4.1-3.9,9.4-1.4,15.8,0,.1.1.1.1.2l9,13.4a.1.1,0,0,0,.1.1,5.52,5.52,0,0,1,1.2,1.9,1.3,1.3,0,0,1-.2,1s-.39,1.44-1.18,1.58C67.32,85.41,66.16,84,65.46,83.34Z"/><path class="cls-1" d="M37.14,45a94.7,94.7,0,0,1-9.5-6.9l1.6-1.5c3.9,3,11,8.3,14.2,7.7l25.3-3.8,1.2,3.7a26,26,0,0,0-8.3,7.6l-2.9-.7c.7-.8-.82-2.57.7-4.45-3.4-1.28-5.3-1.35-6.5-.75C49.24,48.14,42,48.64,37.14,45Z"/><path class="cls-1" d="M9.54,84.34a2.88,2.88,0,0,1-4.43.74c-2.4-1.8-6.26-13.56,2.54-33a5.2,5.2,0,0,1,.19-2.88l2.6-.4a1,1,0,0,0,.6.9l4,1.9c-2.2,3.6-9,15.1-8,19.7.1.3,1.9,7.2,2.4,8.9A9.57,9.57,0,0,1,9.54,84.34Z"/><path class="cls-1" d="M28.6,2.65a13.45,13.45,0,0,0-5.2-.9C-.2,2,3,38.49,7,50.61l3.28-.9L8.9,24.65a1,1,0,0,1,1.7-.8c7.2,6.5,12.23,11,16.66,14.69l1.91-1.79a16,16,0,0,0-3-1.9,1.1,1.1,0,0,1-.3-1.2l1.3-3.2a1,1,0,0,1,1.2-.6l.9.3,7.6-12.7c1.6-2.8,5.2-1.6,6.8-.4l38.2,13a18.48,18.48,0,0,0-.7,5.1c1.14,1.23,1.6-.3,1.9-.7l2-3.7c1.8-2.11.4-2.8-.9-3.2m-60.8-4.8a8.7,8.7,0,1,1,8.7-8.7A8.7,8.7,0,0,1,23.4,22.75Z"/><path class="cls-1" d="M85,25.9C83,25,34.18,3.1,29.58,1.1a15.67,15.67,0,0,0-6-1.1c-27.2.2-19.8,40.9-18,52.3-9.4,20.6-4.7,31.3-1.9,33.9a.37.37,0,0,1,.1.3c2.6,1.9,6,1.4,7-1.3.6-1.5.3-3.9-.2-5.7s-2.4-8.8-2.4-8.8c-.7-3.2,4.6-13.2,8.4-19.1a1.06,1.06,0,0,0,.1-.8.63.63,0,0,0-.5-.6l-4.4-2.1-.5-21.3.7.6,9,8.1a112.63,112.63,0,0,0,14.6,11.1c5.6,4.1,13.8,3.5,17.7,1.1a10.22,10.22,0,0,1,3.3-.9c.7,0,.8.2.8.3a3.23,3.23,0,0,1-1.1,3.1l-4.5,4.7c0,.1-.1.1-.1.2C44.78,66.2,64.18,84.6,65,85.4c2,2.2,5,2.1,6.3,0a2.92,2.92,0,0,0,.6-2.1,6.47,6.47,0,0,0-1.6-3.2L61.38,67c-4.1-9.7,2.9-17.8,9.5-21.2a1.08,1.08,0,0,0,.5-1.2l-1.3-4.2,1.9-.3a1.1,1.1,0,0,0,.8-1.2l-.21-1.17h0l-2,.31v.06l-2.8.5-19,2.9-2,.32v.08l-3.6.5-2.1-.2c-3-1.1-8.9-5.3-12.8-8.4l.6-1.6.7.2.71.48,1.55-2.55h0l4.24-7.13a5.66,5.66,0,0,0,6.9.6c6.8.3,19.8,4.9,29.7,8.8,2.4,1,4.6,1.8,6.5,2.6-.3,1.5,2.2,2.5,2.8,2.4a4,4,0,0,0,3-1.7l.1-.1,2-3.8C88.68,29.2,87.28,26.5,85,25.9Zm0,4.8-2,3.7c-.3.4-1.2,1.3-1.9.7.5-.9,2.4-4.3.7-5.1L43.58,17c-1.5-1.2-5.2-2.4-6.8.4l-7.6,12.7-.9-.3a1,1,0,0,0-1.2.6l-1.3,3.2a1,1,0,0,0,.3,1.2c.4.3,1.3,1,2.3,1.8,4,3,11.35,8.39,13.88,8l25.68-3.58,1.14,3.14a25.93,25.93,0,0,0-8.3,7.6c-2.7,4.1-3.9,9.4-1.4,15.8,0,.1.1.1.1.2l9,13.4a.1.1,0,0,1,.1.1,5.52,5.52,0,0,1,1.2,1.9,1.3,1.3,0,0,1-.2,1c-.1,0-.5.7-1.3.7a3.66,3.66,0,0,1-2-1.1c-.2-.2-16.71-15.64-12.75-27.47l4-4.73a2.25,2.25,0,0,0,.5-.5c1.37-.13,2.36-2.44,1.76-4.54-.8-3.1-6.46-1.26-7.56-.66-3.5,2.1-10.62.76-15.58-1.31-3-2.44-7.85-6.89-9.62-6.59-4.3-3.4-9.1-7.8-16.3-14.3-.6-.6-2.86-1.73-2.58.58L9.78,48.7c0,.4-.82,1.1.6.9l4,1.9c-1.63,3.83-9,15.2-8,19.7,0,.3,1.9,7.2,2.4,8.9A9.26,9.26,0,0,1,9,84.4c-.5,1.4-2.2,1.6-3.9.4C4,81.29,2.63,72.27,7.6,52.23c.63-.5,1-1.72-.42-3C5.38,37.1,0,2.2,23.58,2a13.11,13.11,0,0,1,5.2.9c4.9,2,54.9,24.5,55.3,24.6C85.38,27.8,86,29,85,30.7Z"/></g></g></svg>