<svg xmlns="http://www.w3.org/2000/svg" viewBox="0 0 123 165"><defs><style>.cls-1,.cls-2,.cls-3{fill:none;}.cls-2,.cls-3,.cls-4{stroke:#000;stroke-miterlimit:10;}.cls-2{stroke-width:2px;}</style></defs><g id="Calque_2" data-name="Calque 2"><g id="Calque_1-2" data-name="Calque 1"><rect class="cls-1" width="123" height="165"/><rect class="cls-2" x="26.95" y="24.56" width="77.79" height="127.43" rx="1"/><line class="cls-3" x1="26.63" y1="60.19" x2="104.08" y2="60.19"/><line class="cls-3" x1="26.87" y1="89.61" x2="105.07" y2="89.61"/><line class="cls-3" x1="26.4" y1="121.1" x2="103.65" y2="121.1"/><line class="cls-4" x1="43.52" y1="24.56" x2="43.52" y2="151.99"/><line class="cls-4" x1="58.02" y1="25.63" x2="58.02" y2="151.59"/><line class="cls-4" x1="73.77" y1="26.02" x2="73.77" y2="151.99"/><line class="cls-4" x1="88.68" y1="24.16" x2="88.68" y2="151.59"/><rect class="cls-4" x="27.79" y="24.56" width="76.29" height="5.03"/><path class="cls-4" d="M49.25,106.07c.11,7.44-11.57,7.44-11.46,0C37.68,98.63,49.36,98.63,49.25,106.07Z"/><path class="cls-4" d="M94.42,44.51C94.52,52,82.84,52,83,44.51,82.84,37.07,94.53,37.07,94.42,44.51Z"/><path class="cls-4" d="M63.75,75.52c.11,7.44-11.57,7.44-11.46,0C52.18,68.08,63.86,68.08,63.75,75.52Z"/></g></g></svg>